#Comment line ignore any data following # character 
#Hierarchical Translation and Rotation (.htr) file 
[Header]	
#Header keywords are followed by a single value 
FileType HTR		#Single word string
DataType HTRS		#Translation followed by rotation and scale data
FileVersion 1		#integer
NumSegments 64		#integer
NumFrames 3		#integer
DataFrameRate 30		#integer, data frame rate in this file
EulerRotationOrder ZYX
CalibrationUnits mm
RotationUnits Degrees
GlobalAxisofGravity Y
BoneLengthAxis Y
ScaleFactor 1.00
[SegmentNames&Hierarchy]
#CHILD	PARENT
Pinger_Root GLOBAL
Pelvis Pinger_Root
L_Hip Pelvis
R_Hip Pelvis
Rear_Leg01 Pelvis
Spine1 Pelvis
L_Leg01 L_Hip
L_Leg02 L_Leg01
L_Leg03 L_Leg02
L_Foot L_Leg03
L_Toe1_01 L_Foot
L_Toe2_01 L_Foot
L_Toe3_01 L_Foot
planeAlignerLeft L_Foot
L_Toe1_02 L_Toe1_01
L_Toe1_03 L_Toe1_02
L_Toe2_02 L_Toe2_01
L_Toe2_03 L_Toe2_02
L_Toe3_02 L_Toe3_01
L_Toe3_03 L_Toe3_02
planeLockWeightLeft planeAlignerLeft
R_Leg01 R_Hip
R_Leg02 R_Leg01
R_Leg03 R_Leg02
R_Foot R_Leg03
planeAlignerRight R_Foot
R_Toe1_01 R_Foot
R_Toe2_01 R_Foot
R_Toe3_01 R_Foot
planeLockWeightRight planeAlignerRight
R_Toe1_02 R_Toe1_01
R_Toe1_03 R_Toe1_02
R_Toe2_02 R_Toe2_01
R_Toe2_03 R_Toe2_02
R_Toe3_02 R_Toe3_01
R_Toe3_03 R_Toe3_02
Rear_Leg02 Rear_Leg01
Rear_Leg03 Rear_Leg02
Rear_Leg04 Rear_Leg03
Rear_Foot Rear_Leg04
planeAlignerCenter Rear_Foot
Rear_Toe1_01 Rear_Foot
Rear_Toe2_01 Rear_Foot
Rear_Toe3_01 Rear_Foot
planeLockWeightCenter planeAlignerCenter
Rear_Toe1_02 Rear_Toe1_01
Rear_Toe1_03 Rear_Toe1_02
Rear_Toe2_02 Rear_Toe2_01
Rear_Toe2_03 Rear_Toe2_02
Rear_Toe3_02 Rear_Toe3_01
Rear_Toe3_03 Rear_Toe3_02
Back_Bone Spine1
Head Spine1
Motor_Bone Back_Bone
Ping_Mechanism Back_Bone
BN_LookIK Head
bottomMouth Head
L_Mouth01 Head
L_mouthFront Head
mouthGun Head
R_Mouth01 Head
R_mouthFront Head
TopMouth Head
weapon_bone Head
[BasePosition]
#SegmentName Tx, Ty, Tz, Rx, Ry, Rz, BoneLength
Pinger_Root 0.000000 0.000000 0.000000 -90.000000 0.000000 0.000000 10.000000 
Pelvis 0.000000 0.000000 0.000000 0.000000 0.000000 0.000000 10.000000 
L_Hip 0.000000 0.000000 0.000000 0.000000 0.000000 0.000000 10.000000 
R_Hip 0.000000 0.000000 0.000000 0.000000 0.000000 0.000000 10.000000 
Rear_Leg01 0.000000 0.000000 0.000000 0.000000 0.000000 0.000000 10.000000 
Spine1 0.000000 0.000000 0.000000 0.000000 0.000000 0.000000 10.000000 
L_Leg01 0.000000 0.000000 0.000000 0.000000 0.000000 0.000000 10.000000 
L_Leg02 0.000000 0.000000 0.000000 0.000000 0.000000 0.000000 10.000000 
L_Leg03 0.000000 0.000000 0.000000 0.000000 0.000000 0.000000 10.000000 
L_Foot 0.000000 0.000000 0.000000 0.000000 0.000000 0.000000 10.000000 
L_Toe1_01 0.000000 0.000000 0.000000 0.000000 0.000000 0.000000 10.000000 
L_Toe2_01 0.000000 0.000000 0.000000 0.000000 0.000000 0.000000 10.000000 
L_Toe3_01 0.000000 0.000000 0.000000 0.000000 0.000000 0.000000 10.000000 
planeAlignerLeft 0.000000 0.000000 0.000000 0.000000 0.000000 0.000000 10.000000 
L_Toe1_02 0.000000 0.000000 0.000000 0.000000 0.000000 0.000000 10.000000 
L_Toe1_03 0.000000 0.000000 0.000000 0.000000 0.000000 0.000000 10.000000 
L_Toe2_02 0.000000 0.000000 0.000000 0.000000 0.000000 0.000000 10.000000 
L_Toe2_03 0.000000 0.000000 0.000000 0.000000 0.000000 0.000000 10.000000 
L_Toe3_02 0.000000 0.000000 0.000000 0.000000 0.000000 0.000000 10.000000 
L_Toe3_03 0.000000 0.000000 0.000000 0.000000 0.000000 0.000000 10.000000 
planeLockWeightLeft 0.000000 0.000000 0.000000 0.000000 0.000000 0.000000 10.000000 
R_Leg01 0.000000 0.000000 0.000000 0.000000 0.000000 0.000000 10.000000 
R_Leg02 0.000000 0.000000 0.000000 0.000000 0.000000 0.000000 10.000000 
R_Leg03 0.000000 0.000000 0.000000 0.000000 0.000000 0.000000 10.000000 
R_Foot 0.000000 0.000000 0.000000 0.000000 0.000000 0.000000 10.000000 
planeAlignerRight 0.000000 0.000000 0.000000 0.000000 0.000000 0.000000 10.000000 
R_Toe1_01 0.000000 0.000000 0.000000 0.000000 0.000000 0.000000 10.000000 
R_Toe2_01 0.000000 0.000000 0.000000 0.000000 0.000000 0.000000 10.000000 
R_Toe3_01 0.000000 0.000000 0.000000 0.000000 0.000000 0.000000 10.000000 
planeLockWeightRight 0.000000 0.000000 0.000000 0.000000 0.000000 0.000000 10.000000 
R_Toe1_02 0.000000 0.000000 0.000000 0.000000 0.000000 0.000000 10.000000 
R_Toe1_03 0.000000 0.000000 0.000000 0.000000 0.000000 0.000000 10.000000 
R_Toe2_02 0.000000 0.000000 0.000000 0.000000 0.000000 0.000000 10.000000 
R_Toe2_03 0.000000 0.000000 0.000000 0.000000 0.000000 0.000000 10.000000 
R_Toe3_02 0.000000 0.000000 0.000000 0.000000 0.000000 0.000000 10.000000 
R_Toe3_03 0.000000 0.000000 0.000000 0.000000 0.000000 0.000000 10.000000 
Rear_Leg02 0.000000 0.000000 0.000000 0.000000 0.000000 0.000000 10.000000 
Rear_Leg03 0.000000 0.000000 0.000000 0.000000 0.000000 0.000000 10.000000 
Rear_Leg04 0.000000 0.000000 0.000000 0.000000 0.000000 0.000000 10.000000 
Rear_Foot 0.000000 0.000000 0.000000 0.000000 0.000000 0.000000 10.000000 
planeAlignerCenter 0.000000 0.000000 0.000000 0.000000 0.000000 0.000000 10.000000 
Rear_Toe1_01 0.000000 0.000000 0.000000 0.000000 0.000000 0.000000 10.000000 
Rear_Toe2_01 0.000000 0.000000 0.000000 0.000000 0.000000 0.000000 10.000000 
Rear_Toe3_01 0.000000 0.000000 0.000000 0.000000 0.000000 0.000000 10.000000 
planeLockWeightCenter 0.000000 0.000000 0.000000 0.000000 0.000000 0.000000 10.000000 
Rear_Toe1_02 0.000000 0.000000 0.000000 0.000000 0.000000 0.000000 10.000000 
Rear_Toe1_03 0.000000 0.000000 0.000000 0.000000 0.000000 0.000000 10.000000 
Rear_Toe2_02 0.000000 0.000000 0.000000 0.000000 0.000000 0.000000 10.000000 
Rear_Toe2_03 0.000000 0.000000 0.000000 0.000000 0.000000 0.000000 10.000000 
Rear_Toe3_02 0.000000 0.000000 0.000000 0.000000 0.000000 0.000000 10.000000 
Rear_Toe3_03 0.000000 0.000000 0.000000 0.000000 0.000000 0.000000 10.000000 
Back_Bone 0.000000 0.000000 0.000000 0.000000 0.000000 0.000000 10.000000 
Head 0.000000 0.000000 0.000000 0.000000 0.000000 0.000000 10.000000 
Motor_Bone 0.000000 0.000000 0.000000 0.000000 0.000000 0.000000 10.000000 
Ping_Mechanism 0.000000 0.000000 0.000000 0.000000 0.000000 0.000000 10.000000 
BN_LookIK 0.000000 0.000000 0.000000 0.000000 0.000000 0.000000 10.000000 
bottomMouth 0.000000 0.000000 0.000000 0.000000 0.000000 0.000000 10.000000 
L_Mouth01 0.000000 0.000000 0.000000 0.000000 0.000000 0.000000 10.000000 
L_mouthFront 0.000000 0.000000 0.000000 0.000000 0.000000 0.000000 10.000000 
mouthGun 0.000000 0.000000 0.000000 0.000000 0.000000 0.000000 10.000000 
R_Mouth01 0.000000 0.000000 0.000000 0.000000 0.000000 0.000000 10.000000 
R_mouthFront 0.000000 0.000000 0.000000 0.000000 0.000000 0.000000 10.000000 
TopMouth 0.000000 0.000000 0.000000 0.000000 0.000000 0.000000 10.000000 
weapon_bone 0.000000 0.000000 0.000000 0.000000 0.000000 0.000000 10.000000 
#Beginning of Data. Separated by tabs
#Fr	Tx	Ty	Tz	Rx	Ry	Rz	SF
[Pinger_Root]
1 0.000000 0.000000 0.000000 -0.000075 -0.000000 -0.000020 0.000000
2 -0.000001 -73.411224 0.000000 -0.000075 -0.000000 -0.000020 73.411224
3 -0.000001 -150.553940 0.000000 -0.000075 -0.000000 -0.000020 150.553940
[Pelvis]
1 186.346802 487.106628 5059.364258 -102.028679 -77.097267 92.784882 5086.173828
2 126.820740 489.708099 5058.852051 -103.631142 -78.571732 94.438812 5084.081543
3 67.294685 492.309570 5058.339355 -109.567635 -82.266327 100.519722 5082.686035
[L_Hip]
1 5.766392 125.831482 872.656799 -178.253311 -81.787758 87.381340 881.701050
2 5.766392 125.831482 872.656799 -178.253326 -81.787712 87.381294 881.701050
3 5.766392 125.831482 872.656799 -178.253296 -81.787758 87.381302 881.701050
[R_Hip]
1 5.765438 125.836372 -872.654907 -1.746690 81.787712 87.381248 881.699829
2 5.765438 125.836372 -872.654907 -1.746702 81.787712 87.381203 881.699829
3 5.765438 125.836372 -872.654907 -1.746714 81.787712 87.381248 881.699829
[Rear_Leg01]
1 -192.298416 -925.602966 -0.001907 172.230179 5.931135 -141.506241 945.367432
2 -192.298416 -925.602966 -0.001907 174.795822 6.709890 -135.829865 945.367432
3 -192.298416 -925.602966 -0.001907 177.904404 7.614058 -128.565399 945.367432
[Spine1]
1 290.604584 5.007505 0.000477 10.228071 -2.145823 16.264891 290.647736
2 290.604584 5.007505 0.000477 10.304107 -2.152719 17.841202 290.647736
3 290.604584 5.007505 0.000477 10.433885 -2.257673 21.821421 290.647736
[L_Leg01]
1 761.932007 -0.002384 -0.069261 61.596134 -4.639228 -69.700951 761.932068
2 761.932007 -0.002384 -0.069261 62.053825 -5.237073 -69.835136 761.932068
3 761.932007 -0.002384 -0.069261 63.282368 -5.304158 -69.765228 761.932068
[L_Leg02]
1 1441.140503 -0.000954 -0.000715 -1.531197 0.542666 -89.871941 1441.140503
2 1441.140503 -0.000954 -0.000715 -1.521174 0.535686 -92.158127 1441.140503
3 1441.140503 -0.000954 -0.000715 -1.490060 0.558094 -95.938385 1441.140503
[L_Leg03]
1 1686.963989 -0.000715 -0.000954 0.036606 -0.010084 99.560616 1686.963989
2 1686.963989 -0.000715 -0.000954 0.036549 -0.010288 100.200325 1686.963989
3 1686.963989 -0.000715 -0.000954 0.036584 -0.010162 99.806511 1686.963989
[L_Foot]
1 3041.570068 -30.715107 11.297464 -19.584021 16.106228 73.297234 3041.746094
2 3041.570068 -30.715107 11.297464 -18.697245 16.156584 73.366508 3041.746094
3 3041.570068 -30.715107 11.297464 -17.699024 16.305780 74.226791 3041.746094
[L_Toe1_01]
1 -188.216690 -224.732346 -21.137953 89.699348 -3.374833 -165.449051 293.899567
2 -188.216690 -224.732346 -21.137953 89.714462 -3.434989 -165.426193 293.899567
3 -188.216690 -224.732346 -21.137953 89.729561 -3.495150 -165.403366 293.899567
[L_Toe2_01]
1 200.746536 -219.926590 148.838394 -77.585175 -14.470509 -44.182648 332.896027
2 200.746536 -219.926590 148.838394 -77.578094 -14.395080 -44.274670 332.896027
3 200.746536 -219.926590 148.838394 -77.571136 -14.319640 -44.366657 332.896027
[L_Toe3_01]
1 188.832520 -219.859131 -191.078659 -105.094337 14.710049 -44.951870 347.140900
2 188.832520 -219.859131 -191.078659 -105.055313 14.347095 -45.080677 347.140900
3 188.832520 -219.859131 -191.078659 -105.140732 14.535322 -45.223972 347.140900
[planeAlignerLeft]
1 -12.038879 -606.276367 27.300261 0.000000 -90.000000 -90.001633 607.010132
2 -5.313416 -607.900085 30.375059 0.000000 -90.000000 -90.004288 608.681641
3 -7.561798 -609.433411 28.463211 0.000000 -90.000000 -90.006950 610.144592
[L_Toe1_02]
1 413.761139 0.000477 0.000000 0.001412 -22.421448 0.001412 413.761139
2 413.761139 0.000477 0.000000 0.001413 -22.355911 0.001413 413.761139
3 413.761139 0.000477 0.000000 0.001413 -22.290375 0.001413 413.761139
[L_Toe1_03]
1 464.317322 0.000358 -0.000089 0.015052 81.056046 0.015052 464.317322
2 464.317322 0.000358 -0.000089 0.016627 81.904610 0.016627 464.317322
3 464.317322 0.000358 -0.000089 0.015806 81.483620 0.015806 464.317322
[L_Toe2_02]
1 342.235809 -0.000477 0.000238 0.001180 -77.741257 0.001180 342.235809
2 342.235809 -0.000477 0.000238 0.001181 -77.601677 0.001181 342.235809
3 342.235809 -0.000477 0.000238 0.001181 -77.462029 0.001181 342.235809
[L_Toe2_03]
1 420.210846 -0.000715 0.000000 -179.996613 77.155922 -179.993103 420.210846
2 420.210846 -0.000715 0.000000 -179.996063 78.414101 -179.992554 420.210846
3 420.210846 -0.000715 0.000000 -179.996094 78.337555 -179.992584 420.210846
[L_Toe3_02]
1 329.270111 0.000954 0.000000 0.001177 -81.880569 0.001177 329.270111
2 329.270111 0.000954 0.000000 0.001177 -81.860977 0.001177 329.270111
3 329.270111 0.000954 0.000000 0.001177 -81.841347 0.001177 329.270111
[L_Toe3_03]
1 439.137451 -0.001907 0.000954 -179.997986 72.516495 -179.994446 439.137451
2 439.137451 -0.001907 0.000954 -179.997787 73.371346 -179.994263 439.137451
3 439.137451 -0.001907 0.000954 -179.997833 73.215355 -179.994293 439.137451
[planeLockWeightLeft]
1 1000.000488 -0.000305 -0.000257 -0.011826 -0.004376 0.005620 1000.000488
2 1000.000488 -0.000305 -0.000256 -0.011826 -0.004376 0.005620 1000.000488
3 1000.000488 -0.000305 -0.000255 -0.011826 -0.004376 0.005620 1000.000488
[R_Leg01]
1 761.455627 -0.001907 -0.000358 98.189568 -57.859005 77.533165 761.455688
2 761.455627 -0.001907 -0.000358 97.978767 -56.474472 77.348579 761.455688
3 761.455627 -0.001907 -0.000358 96.672577 -51.831345 78.400482 761.455688
[R_Leg02]
1 1441.140625 0.000000 -0.000238 0.183914 -0.025268 -97.548439 1441.140625
2 1441.140625 0.000000 -0.000238 0.186623 -0.025883 -94.890915 1441.140625
3 1441.140625 0.000000 -0.000238 0.189035 -0.017153 -90.211884 1441.140625
[R_Leg03]
1 1686.963989 0.000954 0.001431 -0.067309 0.015309 92.246521 1686.963989
2 1686.963989 0.000954 0.001431 -0.074576 0.014056 90.107132 1686.963989
3 1686.963989 0.000954 0.001431 -0.085465 0.015491 87.321991 1686.963989
[R_Foot]
1 3041.560059 -30.531288 -11.204481 8.219275 -20.755795 45.827991 3041.734131
2 3041.560059 -30.531288 -11.204481 8.831419 -20.679375 44.832336 3041.734131
3 3041.560059 -30.531288 -11.204481 9.441722 -20.593025 43.838150 3041.734131
[planeAlignerRight]
1 -0.925903 -688.456909 0.344048 0.000000 -89.951546 -90.004936 688.457581
2 -8.276978 -664.809082 4.731998 0.000000 -89.944046 -90.006844 664.877502
3 -26.056519 -620.895935 14.803486 0.000000 -89.955765 -90.008751 621.618713
[R_Toe1_01]
1 -188.383347 -224.864899 21.052242 90.718582 1.942261 -159.549850 294.101532
2 -188.383347 -224.864899 21.052242 90.708290 1.725965 -161.159973 294.101532
3 -188.383347 -224.864899 21.052242 90.698082 1.208090 -163.889023 294.101532
[R_Toe2_01]
1 200.637817 -220.002121 -148.787384 -103.203186 11.342549 -50.102783 332.857574
2 200.637817 -220.002121 -148.787384 -102.805710 11.646857 -48.198544 332.857574
3 200.637817 -220.002121 -148.787384 -101.955772 12.188179 -44.398090 332.857574
[R_Toe3_01]
1 188.606735 -220.092957 191.126343 -72.755302 -14.064878 -52.001999 347.192566
2 188.606735 -220.092957 191.126343 -73.074944 -14.994251 -50.280960 347.192566
3 188.606735 -220.092957 191.126343 -73.731232 -16.970022 -46.928444 347.192566
[planeLockWeightRight]
1 999.999817 0.000000 -0.000763 -0.011823 -0.004379 -0.000027 999.999817
2 999.999817 0.000076 -0.000745 -0.011823 -0.004379 -0.000027 999.999817
3 999.999756 0.000153 -0.000727 -0.011823 -0.004379 -0.000027 999.999756
[R_Toe1_02]
1 413.762085 0.000477 -0.000119 0.001404 -23.390312 0.001404 413.762085
2 413.762085 0.000477 -0.000119 0.001406 -23.228745 0.001406 413.762085
3 413.762085 0.000477 -0.000119 0.001407 -23.067175 0.001407 413.762085
[R_Toe1_03]
1 464.317810 0.000000 0.001088 0.010088 76.638115 0.010088 464.317810
2 464.317810 0.000000 0.001088 0.010732 77.443230 0.010732 464.317810
3 464.317810 0.000000 0.001088 0.011464 78.248245 0.011464 464.317810
[R_Toe2_02]
1 342.234741 -0.000954 0.000238 -0.002342 -75.459846 -0.002342 342.234741
2 342.234741 -0.000954 0.000238 -0.002339 -76.470100 -0.002339 342.234741
3 342.234741 -0.000954 0.000238 -0.002336 -78.141998 -0.002336 342.234741
[R_Toe2_03]
1 420.210846 0.000715 -0.000268 -179.983932 85.402405 -179.987427 420.210846
2 420.210846 0.000715 -0.000268 -179.990295 81.714851 -179.993805 420.210846
3 420.210846 0.000715 -0.000268 -179.993958 74.584946 -179.997482 420.210846
[R_Toe3_02]
1 329.270355 -0.000477 -0.000954 0.001179 -79.331924 0.001179 329.270355
2 329.270355 -0.000477 -0.000954 0.001178 -80.143837 0.001178 329.270355
3 329.270355 -0.000477 -0.000954 0.001177 -81.494850 0.001177 329.270355
[R_Toe3_03]
1 439.137939 0.000238 0.001431 -179.992584 82.804810 -179.989090 439.137939
2 439.137939 0.000238 0.001431 -179.995285 79.825348 -179.991776 439.137939
3 439.137939 0.000238 0.001431 -179.997589 74.181412 -179.994064 439.137939
[Rear_Leg02]
1 1162.777710 -0.029802 0.005960 29.952658 -9.705133 -116.475830 1162.777710
2 1162.777710 -0.029802 0.005960 28.416491 -10.765038 -113.085556 1162.777710
3 1162.777710 -0.029802 0.005960 25.557625 -9.367714 -112.345619 1162.777710
[Rear_Leg03]
1 607.192505 -0.013351 -0.073195 0.009906 -0.006167 80.161133 607.192505
2 607.192505 -0.013351 -0.073195 0.009925 -0.006135 79.799652 607.192505
3 607.192505 -0.013351 -0.073195 0.009914 -0.006154 80.009499 607.192505
[Rear_Leg04]
1 995.874512 -0.020504 -0.011921 -0.044864 -0.012326 103.431145 995.874573
2 995.874512 -0.020504 -0.011921 -0.044632 -0.013139 101.349480 995.874573
3 995.874512 -0.020504 -0.011921 -0.044706 -0.012888 101.993744 995.874573
[Rear_Foot]
1 3096.176270 -0.067472 -0.041425 -115.211510 58.345787 66.579323 3096.176270
2 3096.176270 -0.067472 -0.041425 -110.782951 60.571854 71.316681 3096.176270
3 3096.176270 -0.067472 -0.041425 -95.847412 64.171768 81.269997 3096.176270
[planeAlignerCenter]
1 -0.154228 185.422653 -760.128906 0.001660 -0.001660 179.998337 782.417786
2 4.792861 185.184479 -768.053589 0.001651 -0.001669 -179.388397 790.077576
3 17.440475 183.743973 -790.020203 0.001628 -0.001691 -177.805649 811.294006
[Rear_Toe1_01]
1 0.653352 83.966492 -371.173737 0.094658 39.642590 90.039101 380.553192
2 0.653352 83.966492 -371.173737 -0.182628 40.387573 90.276733 380.553192
3 0.653352 83.966492 -371.173737 -0.943890 42.329178 90.848907 380.553192
[Rear_Toe2_01]
1 178.200760 -294.826019 -362.060547 62.153034 84.605148 -8.520371 499.765686
2 178.200760 -294.826019 -362.060547 60.201637 84.004105 -9.653699 499.765686
3 178.200760 -294.826019 -362.060547 56.490959 82.610901 -11.216757 499.765686
[Rear_Toe3_01]
1 -153.359680 -308.780914 -362.060852 -63.931393 83.953506 -175.451019 499.952881
2 -153.359680 -308.780914 -362.060852 -56.348961 84.557777 -167.116776 499.952881
3 -153.359680 -308.780914 -362.060852 -31.155947 85.476448 -139.884567 499.952881
[planeLockWeightCenter]
1 0.000000 0.000458 -0.000076 -0.011814 -0.004373 -0.000015 0.000464
2 0.000000 0.000401 -0.000038 -0.011814 -0.004373 -0.000015 0.000402
3 0.000000 0.000343 0.000000 -0.011814 -0.004373 -0.000015 0.000343
[Rear_Toe1_02]
1 379.707825 0.194073 0.000477 -0.002653 -32.258087 -0.002653 379.707855
2 379.707825 0.194073 0.000477 -0.002651 -32.407562 -0.002651 379.707855
3 379.707825 0.194073 0.000477 -0.002649 -32.557030 -0.002649 379.707855
[Rear_Toe1_03]
1 500.129700 0.165701 0.000119 -179.984222 85.301506 -179.987732 500.129761
2 500.129700 0.165701 0.000119 -179.982437 85.833824 -179.985931 500.129761
3 500.129700 0.165701 0.000119 -179.974396 87.239685 -179.977890 500.129761
[Rear_Toe2_02]
1 340.494507 0.000238 -0.000954 179.998825 -87.344498 179.998825 340.494507
2 340.494507 0.000238 -0.000954 179.998825 -87.830933 179.998825 340.494507
3 340.494507 0.000238 -0.000954 179.998825 -89.398994 179.998825 340.494507
[Rear_Toe2_03]
1 433.103577 0.000000 0.000238 -179.996231 55.377346 -179.999893 433.103546
2 433.103577 0.000000 0.000238 -179.996109 57.707817 -179.999756 433.103546
3 433.103577 0.000000 0.000238 -179.995621 64.292419 -179.999222 433.103546
[Rear_Toe3_02]
1 340.494141 -0.000358 -0.000477 -179.994171 -87.385513 -179.994171 340.494171
2 340.494141 -0.000358 -0.000477 -179.997681 -87.803490 -179.997681 340.494171
3 340.494141 -0.000358 -0.000477 -179.997681 -89.121071 -179.997681 340.494171
[Rear_Toe3_03]
1 433.103577 0.001431 -0.000238 179.992371 55.623230 179.999695 433.103546
2 433.103577 0.001431 -0.000238 179.992157 57.589272 179.999435 433.103546
3 433.103577 0.001431 -0.000238 -179.999329 63.203346 -179.995712 433.103546
[Back_Bone]
1 1312.175781 -701.934692 0.000954 -2.876992 1.429053 -84.242424 1488.125488
2 1312.175781 -701.934692 0.000954 -3.016175 1.111372 -84.530403 1488.125488
3 1312.175781 -701.934692 0.000954 -3.153744 0.792996 -84.817581 1488.125488
[Head]
1 1406.159424 809.709290 0.001431 -1.529441 2.460027 2.902872 1622.625488
2 1406.159424 809.709290 0.001431 -1.724004 2.452289 2.720722 1622.625488
3 1406.159424 809.709290 0.001431 -1.918542 2.443934 2.538600 1622.625488
[Motor_Bone]
1 1158.364380 -417.834747 0.000477 -2.687934 0.131929 -105.851517 1231.419434
2 1158.364380 -417.834747 0.000477 -5.513655 1.191246 -104.796577 1231.419434
3 1158.364380 -417.834747 0.000477 -3.495545 0.584006 -105.401466 1231.419434
[Ping_Mechanism]
1 1273.029297 -463.488159 -1.178818 0.000103 -0.000053 82.120995 1354.779053
2 1266.180420 -460.366821 -2.749443 0.000103 -0.000053 82.120995 1347.277954
3 1248.862793 -452.160034 -6.022072 0.000103 -0.000053 82.120995 1328.210449
[BN_LookIK]
1 193.241119 1380.371704 -0.002861 0.000000 89.965736 -31.038179 1393.832153
2 193.241119 1380.371704 -0.002861 0.000000 89.965736 -31.038179 1393.832153
3 193.241119 1380.371704 -0.002861 0.000000 89.965736 -31.038179 1393.832153
[bottomMouth]
1 -435.092926 615.759399 -0.000954 -0.000022 0.000016 73.527184 753.966492
2 -435.092926 615.759399 -0.000954 -0.000022 0.000016 73.527184 753.966492
3 -435.092926 615.759399 -0.000954 -0.000022 0.000016 73.527184 753.966492
[L_Mouth01]
1 554.440979 7.658243 838.222046 150.204178 23.759130 109.605339 1005.027161
2 554.440979 7.658243 838.222046 150.204178 23.759130 109.605339 1005.027161
3 554.440979 7.658243 838.222046 150.204178 23.759130 109.605339 1005.027161
[L_mouthFront]
1 551.629089 934.514771 339.150421 0.000081 2.804060 79.119301 1136.941284
2 551.629089 934.514771 339.150421 0.000081 2.804060 79.119301 1136.941284
3 551.629089 934.514771 339.150421 0.000081 2.804060 79.119301 1136.941284
[mouthGun]
1 55.332661 1627.420898 0.000000 0.000023 0.000009 -11.038128 1628.361328
2 55.332661 1627.420898 0.000000 0.000023 0.000009 -11.038128 1628.361328
3 55.332661 1627.420898 0.000000 0.000023 0.000009 -11.038128 1628.361328
[R_Mouth01]
1 554.442383 7.659197 -838.223938 29.795891 -23.759109 109.605331 1005.029541
2 554.442383 7.659197 -838.223938 29.795891 -23.759109 109.605331 1005.029541
3 554.442383 7.659197 -838.223938 29.795891 -23.759109 109.605331 1005.029541
[R_mouthFront]
1 551.629089 934.514282 -339.151367 0.000029 -2.803930 79.119133 1136.941162
2 551.629089 934.514282 -339.151367 0.000029 -2.803930 79.119133 1136.941162
3 551.629089 934.514282 -339.151367 0.000029 -2.803930 79.119133 1136.941162
[TopMouth]
1 461.269867 -56.106091 -0.008583 -0.000059 -0.000268 92.025169 464.669525
2 461.269867 -56.106091 -0.008583 -0.000059 -0.000268 92.025169 464.669525
3 461.269867 -56.106091 -0.008583 -0.000059 -0.000268 92.025169 464.669525
[weapon_bone]
1 -987.239868 1448.372803 0.001431 0.000000 89.965736 -31.038221 1752.833740
2 -987.239868 1448.372803 0.001431 0.000000 89.965736 -31.038221 1752.833740
3 -987.239868 1448.372803 0.001431 0.000000 89.965736 -31.038221 1752.833740
